<svg id="visual" viewBox="0 0 960 540" width="960" height="540" xmlns="http://www.w3.org/2000/svg" xmlns:xlink="http://www.w3.org/1999/xlink" version="1.1"><rect x="0" y="0" width="960" height="540" fill="#9EA1D7"></rect><g transform="translate(439.8420056947949 286.7006055127562)"><path d="M196.5 -232.8C251.2 -188.3 289.5 -123.1 312.5 -47.1C335.5 29 343.1 115.7 300.2 157.6C257.3 199.5 163.9 196.6 87.6 211.8C11.3 227.1 -47.9 260.6 -107.8 256.2C-167.8 251.7 -228.5 209.4 -245.5 154.2C-262.4 99.1 -235.6 31.1 -209.1 -22.6C-182.6 -76.3 -156.4 -115.7 -121.6 -163.7C-86.8 -211.8 -43.4 -268.4 13.8 -284.8C70.9 -301.2 141.8 -277.4 196.5 -232.8" fill="#696ea0"></path></g></svg>